<svg width="60" height="65" viewBox="0 0 60 65" fill="none" xmlns="http://www.w3.org/2000/svg">
<path d="M43.75 17.604H43.775M17.5 5.4165H42.5C49.4036 5.4165 55 11.4793 55 18.9582V46.0415C55 53.5204 49.4036 59.5832 42.5 59.5832H17.5C10.5964 59.5832 5 53.5204 5 46.0415V18.9582C5 11.4793 10.5964 5.4165 17.5 5.4165ZM40 30.7936C40.3085 33.0476 39.9531 35.3496 38.9844 37.3722C38.0156 39.3948 36.4829 41.0349 34.6041 42.0594C32.7253 43.0838 30.5961 43.4404 28.5195 43.0784C26.4428 42.7164 24.5244 41.6542 23.0371 40.043C21.5498 38.4317 20.5693 36.3535 20.2352 34.1038C19.901 31.854 20.2302 29.5475 21.1758 27.5121C22.1215 25.4767 23.6355 23.8162 25.5025 22.7667C27.3695 21.7173 29.4944 21.3323 31.575 21.6665C33.6973 22.0074 35.6621 23.0788 37.1792 24.7223C38.6963 26.3659 39.6853 28.4944 40 30.7936Z" stroke="white" stroke-width="2" stroke-linecap="round" stroke-linejoin="round"/>
</svg>
